<?xml version="1.0" encoding="UTF-8"?>
<svg id="Layer_1" xmlns="http://www.w3.org/2000/svg" viewBox="0 0 181.62 28.28">
  <g>
    <path d="M56.52,21.62c-1.15,0-2.23-.28-3.15-.83l-1.65.45c-.32.09-.67.16-1.12.23-.48.07-.98.11-1.5.11-1.68,0-3.05-.46-4.07-1.37-.79-.7-1.73-2.01-1.73-4.24V1.01l3.28-.6c.19-.03.46-.08.82-.13.48-.07.97-.11,1.45-.11,1.55,0,2.79.37,3.8,1.12.01,0,.02.02.04.03l.94-1.06h1.8c1.84,0,3.34.49,4.46,1.46,1.25,1.09,1.94,2.58,1.94,4.2,0,1.04-.25,2.02-.76,2.91-.35.62-.83,1.23-1.47,1.87l-.32.32s.02.02.03.04c.76.81,1.39,1.46,1.88,1.95l1.21,1.21-.04,1.72c-.04,1.68-.74,3.19-1.95,4.24-1.1.95-2.44,1.45-3.89,1.45Z" style="fill: #fff;"/>
    <path d="M38.28,21.77c-1.43,0-2.79-.23-4.05-.7-1.35-.5-2.53-1.24-3.53-2.21-1-.98-1.78-2.18-2.33-3.57-.52-1.32-.78-2.81-.78-4.42s.27-3.13.81-4.45c.55-1.37,1.34-2.56,2.35-3.53,1-.96,2.18-1.7,3.5-2.19,1.25-.47,2.61-.7,4.03-.7s2.77.23,4.03.7c1.34.49,2.52,1.23,3.52,2.2,1.01.97,1.8,2.16,2.35,3.53.54,1.33.81,2.83.81,4.45s-.26,3.1-.78,4.42c-.55,1.4-1.34,2.6-2.36,3.58-1,.96-2.18,1.7-3.52,2.2-1.26.46-2.62.7-4.05.7Z" style="fill: #fff;"/>
    <path d="M23.23,21.77c-1.43,0-2.79-.23-4.05-.7-1.35-.5-2.53-1.24-3.53-2.21-1-.98-1.78-2.18-2.33-3.57-.52-1.32-.78-2.81-.78-4.42s.27-3.13.81-4.45c.55-1.37,1.34-2.56,2.35-3.53,1-.96,2.18-1.7,3.5-2.19,1.25-.47,2.61-.7,4.03-.7s2.77.23,4.03.7c1.34.49,2.52,1.23,3.52,2.2,1.01.97,1.8,2.16,2.35,3.53.54,1.33.81,2.83.81,4.45s-.26,3.1-.78,4.42c-.55,1.4-1.34,2.6-2.36,3.58-1,.96-2.18,1.7-3.52,2.2-1.26.46-2.62.7-4.05.7Z" style="fill: #fff;"/>
    <path d="M8.9,21.73c-.31,0-.66,0-1.05-.03-.4-.02-.81-.05-1.22-.09-.45-.05-.9-.11-1.35-.2-.55-.11-1.07-.25-1.55-.42-2.3-.84-3.73-2.84-3.73-5.21V5.55c0-1.31.47-2.53,1.33-3.43.62-.65,1.41-1.13,2.34-1.42.73-.24,1.56-.41,2.53-.52.85-.09,1.73-.14,2.62-.14,2.58,0,4.63.5,6.27,1.52,2.16,1.35,3.34,3.55,3.34,6.2,0,.84-.14,1.65-.42,2.4.57,1.04.87,2.22.87,3.47,0,2.74-1.19,5.02-3.34,6.44-1.71,1.12-3.88,1.67-6.63,1.67Z" style="fill: #fff;"/>
    <path d="M14.42,7.76c0,.65-.18,1.2-.53,1.67-.35.47-.86.83-1.52,1.09.83.27,1.45.67,1.87,1.2.42.53.62,1.17.62,1.91,0,1.39-.51,2.42-1.54,3.09s-2.5,1.01-4.44,1.01c-.26,0-.55,0-.87-.02s-.65-.04-.99-.08c-.34-.04-.67-.09-1.01-.15-.34-.06-.64-.15-.91-.25-.75-.27-1.12-.76-1.12-1.46V5.55c0-.29.08-.51.23-.67s.37-.28.66-.37c.47-.16,1.06-.28,1.76-.35.7-.08,1.43-.12,2.17-.12,1.79,0,3.17.3,4.15.91.97.61,1.46,1.54,1.46,2.8ZM7.27,9.57h2c.56,0,1-.13,1.31-.39.31-.26.47-.64.47-1.14,0-.46-.18-.81-.55-1.06-.37-.25-.91-.38-1.64-.38-.27,0-.56.01-.86.03s-.54.05-.73.08v2.86ZM11.44,13.48c0-1.02-.65-1.53-1.96-1.53h-2.21v3.01c.23.06.52.1.86.13s.67.04.99.04c.69,0,1.25-.13,1.68-.4s.64-.68.64-1.26Z" style="fill: #8a2be2;"/>
    <path d="M29.94,10.88c0,1.12-.17,2.11-.5,2.97-.34.86-.81,1.58-1.41,2.16s-1.31,1.02-2.13,1.32-1.71.45-2.66.45-1.85-.15-2.67-.45c-.82-.3-1.52-.74-2.12-1.32-.59-.58-1.06-1.3-1.4-2.16-.34-.86-.51-1.85-.51-2.97s.17-2.1.52-2.96c.34-.85.82-1.57,1.42-2.15.6-.58,1.31-1.02,2.12-1.32s1.69-.45,2.63-.45,1.83.15,2.64.45,1.53.74,2.13,1.32c.6.58,1.07,1.3,1.42,2.15.34.85.52,1.84.52,2.96ZM26.46,10.88c0-1.38-.29-2.41-.87-3.11-.58-.69-1.36-1.04-2.35-1.04s-1.76.35-2.34,1.04c-.59.7-.88,1.73-.88,3.11s.29,2.43.87,3.13c.58.7,1.36,1.04,2.35,1.04s1.77-.35,2.35-1.04c.58-.69.87-1.74.87-3.13Z" style="fill: #8a2be2;"/>
    <path d="M44.98,10.88c0,1.12-.17,2.11-.5,2.97-.34.86-.81,1.58-1.41,2.16s-1.31,1.02-2.13,1.32-1.71.45-2.66.45-1.85-.15-2.67-.45c-.82-.3-1.52-.74-2.12-1.32-.59-.58-1.06-1.3-1.4-2.16-.34-.86-.51-1.85-.51-2.97s.17-2.1.52-2.96c.34-.85.82-1.57,1.42-2.15.6-.58,1.31-1.02,2.12-1.32s1.69-.45,2.63-.45,1.83.15,2.64.45,1.53.74,2.13,1.32c.6.58,1.07,1.3,1.42,2.15.34.85.52,1.84.52,2.96ZM41.5,10.88c0-1.38-.29-2.41-.87-3.11-.58-.69-1.36-1.04-2.35-1.04s-1.76.35-2.34,1.04c-.59.7-.88,1.73-.88,3.11s.29,2.43.87,3.13c.58.7,1.36,1.04,2.35,1.04s1.77-.35,2.35-1.04c.58-.69.87-1.74.87-3.13Z" style="fill: #8a2be2;"/>
    <path d="M50.01,17.52c-.29.04-.59.06-.9.06-.67,0-1.14-.12-1.41-.35-.27-.24-.4-.66-.4-1.26V4.34c.16-.03.38-.06.68-.11.29-.04.58-.06.87-.06.65,0,1.11.11,1.4.32s.43.64.43,1.27v3.87l4.75-5.37c.86,0,1.48.16,1.85.48.37.32.56.71.56,1.17,0,.34-.08.66-.25.96-.17.29-.43.63-.81,1l-3.05,3.05c.99,1.07,1.88,2.03,2.68,2.88.8.85,1.45,1.53,1.97,2.04-.01.56-.2,1-.57,1.31s-.79.47-1.28.47c-.53,0-.96-.13-1.3-.4-.34-.27-.66-.58-.98-.94l-3.57-4.04v5.14c-.16.04-.38.09-.67.13Z" style="fill: #8a2be2;"/>
  </g>
  <text transform="translate(68.01 17.41)" style="fill: #fff; font-family: BalooBhai2-Bold, &apos;Baloo Bhai 2&apos;; font-size: 21.49px; font-weight: 700;"><tspan x="0" y="0" style="letter-spacing: -.01em;">Y</tspan><tspan x="11.9" y="0">OURSHOW</tspan></text>
</svg>