<svg version="1.1" id="Layer_1" xmlns="http://www.w3.org/2000/svg" xmlns:xlink="http://www.w3.org/1999/xlink" x="0px" y="0px"
	 width="100%" viewBox="0 0 1860 726" enable-background="new 0 0 1860 726" xml:space="preserve">
<path fill="#FEFEFE" opacity="1.000000" stroke="none" 
	d="
M1458.000000,727.000000 
	C972.000000,727.000000 486.500000,727.000000 1.000000,727.000000 
	C1.000000,485.000000 1.000000,243.000000 1.000000,1.000000 
	C621.000000,1.000000 1241.000000,1.000000 1861.000000,1.000000 
	C1861.000000,243.000000 1861.000000,485.000000 1861.000000,727.000000 
	C1726.833374,727.000000 1592.666626,727.000000 1458.000000,727.000000 
M33.552013,528.803528 
	C33.640617,529.862488 33.729221,530.921448 33.780018,532.903931 
	C35.466228,533.224854 37.151760,533.820984 38.838753,533.825195 
	C63.107670,533.885010 87.376816,533.892273 111.645828,533.855652 
	C130.090897,533.827759 148.535828,533.719727 167.877838,533.863220 
	C171.257706,533.791504 174.637589,533.719849 178.936142,533.832214 
	C186.284363,533.770996 193.632599,533.709778 201.840286,533.865234 
	C203.899338,533.793335 205.958374,533.721436 208.928329,533.832764 
	C213.279160,533.770569 217.629974,533.708374 222.724930,533.860901 
	C223.489105,533.789368 224.253265,533.717896 225.936172,533.830750 
	C237.951065,533.770386 249.965942,533.710022 262.870850,533.866028 
	C265.919708,533.793274 268.968567,533.720520 272.886841,533.831238 
	C275.251495,533.770752 277.616180,533.710205 280.770874,533.865723 
	C281.853058,533.793640 282.935242,533.721558 284.936249,533.833191 
	C303.284454,533.771790 321.632629,533.710388 340.770935,533.864868 
	C341.853088,533.792908 342.935272,533.720886 344.934784,533.832886 
	C350.616669,533.767639 356.298584,533.702393 362.839630,533.855957 
	C364.898987,533.782898 366.958313,533.709839 369.935944,533.823059 
	C377.950806,533.760498 385.965637,533.697876 394.862762,533.853516 
	C397.581055,533.780823 400.299347,533.708130 403.925140,533.821106 
	C407.943604,533.759949 411.962036,533.698792 416.862671,533.856323 
	C419.580994,533.783386 422.299347,533.710388 425.886780,533.822571 
	C428.251343,533.760437 430.615906,533.698364 433.839661,533.854980 
	C435.898987,533.781738 437.958344,533.708496 440.886505,533.821899 
	C443.251160,533.759705 445.615845,533.697510 448.870178,533.853333 
	C451.919342,533.781067 454.968506,533.708801 458.925018,533.822998 
	C462.943512,533.761047 466.962006,533.699158 471.862671,533.855896 
	C474.580994,533.782410 477.299316,533.708923 480.873199,533.820801 
	C482.908966,533.759583 484.944733,533.698425 487.822845,533.855896 
	C489.554474,533.782532 491.286072,533.709229 493.936127,533.821411 
	C501.617584,533.759460 509.299072,533.697571 517.822754,533.854675 
	C519.554382,533.781982 521.286011,533.709351 523.927979,533.822815 
	C528.278809,533.760254 532.629700,533.697693 537.889221,533.854004 
	C542.598694,533.781616 547.308167,533.709290 552.873108,533.822571 
	C554.908936,533.760803 556.944702,533.699036 559.881226,533.856140 
	C563.593445,533.778748 567.305664,533.701355 571.740234,533.810059 
	C573.220520,533.746765 574.700806,533.683411 576.967407,533.826904 
	C580.317566,533.758606 583.667664,533.690308 587.935730,533.810120 
	C599.950500,533.747314 611.965332,533.684570 624.800476,533.842102 
	C626.206299,533.768433 627.612061,533.694824 629.886475,533.809082 
	C632.251038,533.746521 634.615601,533.683960 637.723755,533.842041 
	C638.488464,533.768738 639.253113,533.695374 640.930725,533.809998 
	C645.613892,533.747192 650.297058,533.684448 655.723816,533.842102 
	C656.488464,533.768616 657.253174,533.695129 658.924866,533.809631 
	C662.943298,533.747253 666.961731,533.684875 671.886353,533.843872 
	C676.263489,533.769775 680.640686,533.695740 685.935791,533.809387 
	C697.617249,533.746704 709.298706,533.684021 721.647888,533.838867 
	C722.104553,533.766296 722.561218,533.693726 723.935791,533.809143 
	C732.617249,533.746643 741.298645,533.684143 750.880188,533.843018 
	C754.592712,533.770447 758.305237,533.697876 762.927795,533.812683 
	C767.278564,533.748718 771.629333,533.684692 776.891052,533.841064 
	C1095.608521,533.828186 1414.325928,533.815674 1733.043335,533.792480 
	C1734.367676,533.792358 1735.692017,533.638977 1737.777710,533.676086 
	C1739.571411,529.744324 1739.444702,528.651367 1736.085449,526.597656 
	C1735.252441,526.585876 1734.419556,526.563660 1733.586548,526.563721 
	C1169.052246,526.587708 604.518005,526.613037 39.983730,526.650024 
	C38.327900,526.650146 36.672077,526.822266 34.307701,526.862915 
	C34.145245,527.256470 33.982784,527.650085 33.552013,528.803528 
M1085.939941,694.992798 
	C1301.562256,694.925415 1517.184570,694.858398 1732.806885,694.782349 
	C1733.967163,694.781921 1735.127319,694.655640 1736.931274,694.823853 
	C1737.899536,692.663940 1738.867798,690.503967 1739.858398,688.294250 
	C1170.314697,688.294250 601.967224,688.294250 33.720009,688.294250 
	C33.720009,691.346436 33.720009,693.411621 33.720009,695.769104 
	C35.941513,695.769104 37.753838,695.770142 39.566166,695.768921 
	C386.059418,695.538757 732.552673,695.308899 1079.045898,695.067688 
	C1081.036865,695.066284 1083.027832,694.906860 1085.939941,694.992798 
M582.851135,38.653828 
	C568.277405,37.413609 553.716309,35.970894 539.122070,35.058044 
	C534.810730,34.788380 530.253723,35.615940 526.621765,39.592888 
	C527.690735,39.887146 528.265442,40.111282 528.860291,40.199635 
	C556.095215,44.245010 581.630005,53.823677 606.995300,64.020050 
	C610.306152,65.350952 611.376038,67.087715 611.392273,70.607430 
	C611.514160,96.938309 611.858215,123.268158 612.114990,149.598495 
	C612.128540,150.986816 611.981628,152.376709 611.883362,154.265854 
	C610.164307,153.363708 608.999939,152.771622 607.852783,152.147842 
	C560.494507,126.398270 511.390259,104.711449 459.870575,88.672295 
	C431.862549,79.952812 403.623108,71.711151 374.376465,68.865425 
	C345.388306,66.044846 316.228973,63.782707 287.127289,63.561275 
	C208.311752,62.961571 129.486923,63.557716 50.665943,63.747833 
	C45.578514,63.760105 38.877064,62.517643 35.852699,65.181351 
	C32.725971,67.935204 33.165138,74.743340 32.069374,79.783386 
	C32.005409,80.077606 32.164749,80.420372 32.276321,81.064949 
	C34.011288,81.064949 35.802059,81.097359 37.591389,81.060188 
	C78.229034,80.216011 118.896179,77.980469 159.496826,78.850494 
	C215.114166,80.042313 270.688110,83.448029 326.264709,86.224495 
	C341.223602,86.971809 356.355194,87.682602 371.002075,90.510292 
	C397.691467,95.662872 423.371094,104.585075 448.430298,115.162811 
	C507.164612,139.955154 560.248657,174.078156 610.158020,213.386719 
	C611.740723,214.633286 612.750305,217.546494 612.774475,219.696823 
	C613.581421,291.520691 614.364258,363.345612 614.715637,435.172516 
	C614.751221,442.455658 612.964172,450.089417 610.417297,456.965759 
	C606.282837,468.128174 597.978210,475.162323 585.468872,475.063019 
	C579.758911,475.017670 574.060425,473.533630 568.832825,472.771545 
	C568.832825,481.750275 568.832825,491.161163 568.832825,501.266113 
	C620.296265,501.266113 671.008545,501.266113 722.105713,501.266113 
	C721.409790,491.117401 720.713013,480.955963 719.981995,470.295837 
	C710.673218,474.147461 702.118591,474.742584 694.809814,468.293915 
	C685.614258,460.180603 679.598511,449.802368 679.373352,437.439514 
	C678.399475,383.963440 677.896729,330.478760 677.240051,276.997009 
	C677.220642,275.419159 677.393311,273.838928 677.529663,271.248444 
	C705.789001,297.829681 731.994446,325.023193 756.743530,354.079742 
	C775.144653,312.740265 801.233826,277.148621 827.834473,241.095367 
	C856.252563,275.340973 883.985291,308.877655 903.950928,348.403656 
	C934.043091,317.345612 965.627563,288.866943 999.296204,261.423676 
	C999.443176,263.738556 999.598450,265.171722 999.614929,266.606506 
	C999.729675,276.605225 999.791870,286.604523 999.915161,296.603088 
	C1000.500671,344.091431 1001.019348,391.580841 1001.734436,439.067230 
	C1002.021912,458.158875 992.280518,469.967133 973.358276,472.491577 
	C969.601501,472.992767 965.763245,472.883057 961.517761,473.075226 
	C960.901611,482.229584 960.291687,491.293060 959.662842,500.636627 
	C1010.106079,500.636627 1059.954956,500.636627 1109.713745,500.636627 
	C1109.713745,491.591675 1109.713745,482.965240 1109.713745,474.142090 
	C1107.522949,473.652405 1105.586792,473.217926 1103.649780,472.787018 
	C1094.324219,470.712311 1085.246704,467.975922 1077.529175,462.053375 
	C1072.491577,458.187531 1068.864136,453.616730 1068.810181,446.646637 
	C1068.226440,371.153748 1067.613037,295.660614 1066.672363,220.171738 
	C1066.584229,213.100067 1068.528442,208.957596 1074.523315,204.894821 
	C1139.756592,160.685745 1208.335571,123.070877 1283.790771,99.329834 
	C1306.121460,92.303757 1328.963867,85.938324 1352.053223,82.540459 
	C1379.172119,78.549568 1406.794312,77.728233 1434.236694,76.246231 
	C1469.507568,74.341461 1504.809937,72.964485 1540.110596,71.686287 
	C1601.590210,69.460159 1663.065430,69.400032 1724.514160,72.871658 
	C1727.597656,73.045853 1730.699463,72.894066 1734.297485,72.894066 
	C1734.297485,68.128593 1734.309937,63.656307 1734.286011,59.184219 
	C1734.281616,58.376152 1734.127808,57.568886 1734.019897,56.540920 
	C1732.789917,56.389526 1731.669800,56.143208 1730.546875,56.128864 
	C1622.062378,54.743164 1513.584473,53.587769 1405.100586,56.723793 
	C1356.922485,58.116512 1309.521240,64.310089 1262.874023,76.322556 
	C1201.778198,92.055809 1142.708130,113.440376 1085.568726,140.173203 
	C1079.343628,143.085587 1073.118286,145.997284 1066.448730,149.117172 
	C1067.032837,123.349350 1067.762329,98.378212 1068.038330,73.402069 
	C1068.099365,67.863159 1070.037842,64.202591 1074.582642,61.529842 
	C1076.588623,60.350132 1078.418457,58.795933 1080.532715,57.887207 
	C1096.877930,50.861820 1113.254883,43.909519 1129.665405,37.037956 
	C1133.832031,35.293289 1138.154297,33.920418 1142.405029,32.376713 
	C1141.576172,31.391703 1140.989990,31.377754 1140.404541,31.393694 
	C1101.958618,32.440559 1064.672119,39.719215 1028.448975,52.488544 
	C965.865295,74.550400 909.986267,108.355690 858.577637,149.911591 
	C851.250244,155.834671 844.183167,162.079849 837.151550,168.043625 
	C828.648804,160.878189 820.666443,153.805588 812.326904,147.182846 
	C774.583557,117.209579 733.086609,93.414330 690.038940,71.945419 
	C656.272156,55.105083 620.626099,45.108013 582.851135,38.653828 
M231.819763,457.613831 
	C230.382370,452.854095 228.668503,448.157654 227.561890,443.322235 
	C224.777557,431.155884 217.322479,421.798309 209.497620,412.677155 
	C205.233063,407.706085 200.600159,403.050964 195.809448,397.905426 
	C197.918930,397.203766 199.459854,396.670258 201.013763,396.177551 
	C221.731430,389.608765 241.731171,381.465424 259.526886,368.719666 
	C292.153198,345.351837 305.883209,314.383911 297.112885,274.461060 
	C292.360443,252.827728 282.733856,233.316696 270.470154,215.140121 
	C258.468231,197.351547 246.298676,179.658096 227.951752,167.326843 
	C191.573364,142.876358 153.289307,123.432510 108.544365,120.494141 
	C83.587646,118.855240 59.785046,122.970665 37.749901,135.470566 
	C34.148247,137.513687 32.863297,139.948425 32.879852,144.186951 
	C33.351799,265.005371 33.669624,385.824402 34.011772,506.643341 
	C34.016811,508.422638 34.012402,510.201935 34.012402,512.012939 
	C53.832714,512.012939 73.061508,512.012939 91.466042,512.012939 
	C91.466042,499.855377 91.680244,488.065186 91.417236,476.285645 
	C90.993256,457.296539 90.112389,438.317596 89.695023,419.328400 
	C89.373016,404.677979 97.345215,397.508698 111.970078,398.838562 
	C116.448883,399.245850 120.960037,399.510468 125.384895,400.261536 
	C146.352051,403.820496 162.511093,416.821625 167.696579,438.000763 
	C177.608948,478.486053 209.095459,502.299683 250.269760,501.916748 
	C274.424561,501.692108 298.581696,501.726593 322.737000,501.541077 
	C332.965515,501.462555 330.620544,503.169769 333.537689,493.267761 
	C347.317688,446.493408 360.996918,399.689240 374.588013,352.859680 
	C375.491364,349.747131 376.768311,348.690887 380.052063,348.754059 
	C398.045776,349.100220 416.044312,349.277588 434.041412,349.299408 
	C437.363464,349.303436 439.010529,350.135071 440.088593,353.512970 
	C455.369049,401.390411 470.838806,449.207458 486.128662,497.081909 
	C487.156158,500.299133 488.436249,501.540710 491.973846,501.497955 
	C509.136078,501.290466 526.302185,501.407990 543.466919,501.388580 
	C544.901306,501.386932 546.335571,501.223816 548.195984,501.109589 
	C547.552002,499.086761 547.084778,497.515289 546.553528,495.965729 
	C533.544922,458.022552 520.516968,420.086029 507.517975,382.139587 
	C479.850525,301.373138 452.180298,220.607697 424.608032,139.808792 
	C423.608368,136.879364 422.171570,136.064621 419.228424,136.025024 
	C402.899933,135.805450 386.574341,135.372253 370.247559,135.021805 
	C368.628967,134.987045 367.009003,135.017166 365.058685,135.017166 
	C365.352509,136.248093 365.479553,137.048203 365.733551,137.805710 
	C375.151154,165.892960 384.644257,193.955292 393.892914,222.097977 
	C394.674347,224.475677 394.647278,227.765594 393.617798,229.995590 
	C376.178253,267.771729 358.516022,305.445068 340.911774,343.145233 
	C319.924957,388.089294 298.964264,433.045593 277.899597,477.953125 
	C277.053772,479.756348 275.549347,481.939972 273.854156,482.539673 
	C265.098511,485.636932 256.526428,485.301117 248.564468,479.862823 
	C240.695023,474.487762 235.961502,466.739502 231.819763,457.613831 
M1336.373291,141.075195 
	C1335.651978,140.661011 1334.927368,140.252747 1334.209961,139.831757 
	C1299.240112,119.310860 1264.096069,118.450951 1229.348999,139.908295 
	C1202.116089,156.725418 1184.445312,181.823959 1172.342651,210.805344 
	C1148.751587,267.297119 1147.560059,325.105438 1164.529053,383.449585 
	C1174.123291,416.437439 1190.214233,445.925476 1215.425049,469.781891 
	C1235.121948,488.420593 1258.043457,500.588715 1285.635254,501.969360 
	C1317.281982,503.552856 1343.436646,491.028687 1365.358643,469.101868 
	C1394.244507,440.209747 1409.108032,404.202972 1415.820068,364.662384 
	C1423.523804,319.279449 1419.739380,274.624420 1403.780029,231.341660 
	C1390.356567,194.936035 1369.871338,163.527725 1336.373291,141.075195 
M1579.833618,157.513687 
	C1580.131592,170.340424 1580.461670,183.166504 1580.722290,195.994003 
	C1582.238037,270.625610 1583.738159,345.257538 1585.241333,419.889404 
	C1585.362061,425.883362 1586.261353,431.989410 1585.435303,437.851257 
	C1582.725342,457.082092 1572.877075,471.485657 1554.383301,478.622375 
	C1535.179565,486.033020 1516.982178,483.463440 1500.777222,470.563995 
	C1490.576294,462.443878 1484.281494,451.486145 1480.669678,439.054626 
	C1479.639160,435.507294 1478.102539,434.018890 1474.176636,434.089874 
	C1464.351929,434.267456 1454.518188,433.884583 1444.687500,433.786926 
	C1438.580933,433.726257 1432.473267,433.775696 1425.926758,433.775696 
	C1429.849487,447.147095 1436.627563,458.578949 1446.213257,468.319061 
	C1462.890259,485.264893 1483.847168,493.535828 1506.743408,497.721039 
	C1535.337524,502.947693 1562.767944,501.067780 1588.034668,484.852203 
	C1605.457764,473.670471 1621.210327,460.441223 1633.067993,443.584869 
	C1639.023193,435.119019 1646.034668,429.265106 1654.865845,424.822449 
	C1655.018799,424.745575 1654.989746,424.306854 1655.098145,423.782654 
	C1654.410278,423.483978 1653.673584,423.173981 1652.944824,422.846100 
	C1640.740967,417.356323 1634.174194,408.650055 1634.097534,394.542053 
	C1633.917358,361.387817 1632.924194,328.237976 1632.257324,295.086426 
	C1631.131348,239.112808 1630.005005,183.139175 1628.862793,127.165886 
	C1628.836670,125.886116 1628.619019,124.610260 1628.488037,123.306641 
	C1611.935669,123.306641 1595.705322,123.306641 1579.823120,123.306641 
	C1579.823120,134.596405 1579.823120,145.558105 1579.833618,157.513687 
M1693.992676,498.345703 
	C1695.083740,499.344116 1696.125366,501.133118 1697.274292,501.204926 
	C1702.418701,501.526581 1707.593506,501.364319 1712.757446,501.366943 
	C1721.367676,501.371277 1729.977905,501.368134 1738.736328,501.368134 
	C1738.736328,375.025269 1738.736328,249.202682 1738.736328,123.321091 
	C1722.684570,123.321091 1706.966064,123.321091 1690.955811,123.321091 
	C1691.968140,248.229736 1692.977661,372.798523 1693.992676,498.345703 
M776.073181,594.150146 
	C774.282410,581.441467 772.491699,568.732788 770.700928,556.024109 
	C770.121277,555.962891 769.541626,555.901611 768.961914,555.840393 
	C755.989319,582.374390 743.016785,608.908325 729.693054,636.160522 
	C716.093628,608.626465 703.019653,582.156250 689.945618,555.685974 
	C689.367981,555.890320 688.790283,556.094727 688.212585,556.299072 
	C683.616455,588.956726 679.020386,621.614319 674.408875,654.381714 
	C678.176208,654.381714 681.075012,654.381714 684.275940,654.381714 
	C687.359863,631.576965 690.407898,609.037476 693.455994,586.497986 
	C695.353333,588.122192 696.189697,589.726379 696.991394,591.347717 
	C706.729858,611.041565 716.433533,630.752808 726.252869,650.406189 
	C727.060974,652.023621 728.645874,653.252991 729.869873,654.662720 
	C730.946045,653.267822 732.292114,652.006409 733.057373,650.457886 
	C742.788452,630.766418 752.433655,611.032593 762.110107,591.314209 
	C762.852295,589.801636 763.666687,588.324463 764.447510,586.830872 
	C764.780457,586.935974 765.113342,587.041077 765.446228,587.146179 
	C768.533203,609.620544 771.620178,632.094971 774.662781,654.246094 
	C778.455444,654.246094 781.488037,654.246094 784.773865,654.246094 
	C781.868835,634.181030 779.033997,614.600769 776.073181,594.150146 
M1038.221313,656.348145 
	C1058.972046,659.075256 1077.011841,654.346252 1091.111206,637.365173 
	C1088.339111,635.175293 1085.921387,633.265320 1083.518066,631.366821 
	C1062.831665,654.794983 1031.043945,649.613770 1016.774292,634.007202 
	C1002.453735,618.344971 1002.721985,590.914429 1018.115845,575.865967 
	C1034.283813,560.060791 1064.887085,557.986206 1083.580811,580.435486 
	C1086.037231,578.544678 1088.503418,576.646301 1091.008667,574.717834 
	C1090.701172,574.135803 1090.538452,573.671509 1090.250610,573.305542 
	C1078.026611,557.759888 1061.654907,552.408691 1042.509033,553.948608 
	C1016.248901,556.060730 996.553467,576.720825 995.369751,603.361389 
	C994.213135,629.391663 1011.837524,651.562317 1038.221313,656.348145 
M76.496933,556.070374 
	C65.418182,556.070374 54.339432,556.070374 43.442810,556.070374 
	C43.442810,589.391541 43.442810,621.921753 43.442810,654.454590 
	C46.793678,654.454590 49.733742,654.454590 53.168945,654.454590 
	C53.168945,638.482727 53.168945,622.744202 53.168945,606.386719 
	C66.537193,606.386719 79.420456,606.386719 92.163109,606.386719 
	C92.163109,602.701782 92.163109,599.655884 92.163109,596.134644 
	C78.982712,596.134644 66.246811,596.134644 53.564583,596.134644 
	C53.564583,585.931091 53.564583,576.221558 53.564583,566.044556 
	C66.689064,566.044556 79.428032,566.044556 92.270340,566.044556 
	C92.270340,562.490723 92.270340,559.422180 92.270340,556.070190 
	C87.121025,556.070190 82.307800,556.070190 76.496933,556.070374 
M1709.166504,627.500549 
	C1707.083984,613.399658 1711.078735,601.039001 1719.743774,589.937317 
	C1721.471191,587.723999 1722.740234,585.149780 1724.191528,582.724548 
	C1729.369873,574.071045 1734.535522,565.409912 1739.786499,556.616943 
	C1732.314819,554.855652 1727.326904,556.167847 1723.768677,563.472717 
	C1719.418335,572.403992 1713.627197,580.634766 1708.434326,589.153442 
	C1707.110596,591.325256 1705.694336,593.440735 1703.966797,596.133545 
	C1696.728882,584.428345 1689.904663,573.431885 1683.122070,562.409729 
	C1678.787964,555.366333 1676.846191,554.604370 1668.052002,556.916626 
	C1672.510742,564.204346 1676.913330,571.420959 1681.336426,578.624939 
	C1687.077393,587.974915 1695.053223,596.678650 1697.965820,606.836487 
	C1700.926147,617.161255 1698.911011,628.915100 1699.055176,640.043335 
	C1699.093994,643.039307 1699.061401,646.036255 1699.061401,649.032715 
	C1699.061401,650.790771 1699.061279,652.548828 1699.061279,654.316406 
	C1702.814819,654.316406 1705.861572,654.316406 1709.166260,654.316406 
	C1709.166260,645.458313 1709.166260,636.979248 1709.166504,627.500549 
M457.162659,645.435181 
	C457.162659,648.373901 457.162659,651.312622 457.162659,654.308594 
	C473.450012,654.308594 489.119995,654.308594 504.797882,654.308594 
	C504.797882,650.951965 504.797882,648.011047 504.797882,644.645386 
	C492.479218,644.645386 480.387482,644.645386 467.584656,644.645386 
	C467.584656,614.917297 467.584656,585.608276 467.584656,556.382568 
	C463.774078,556.382568 460.690033,556.382568 457.162628,556.382568 
	C457.162628,585.959229 457.162628,615.206970 457.162659,645.435181 
M1449.210693,565.193848 
	C1456.221436,565.624207 1463.232056,566.054626 1470.728271,566.514771 
	C1470.728271,595.729248 1470.728271,624.936340 1470.728271,654.359375 
	C1474.439575,654.359375 1477.659790,654.359375 1481.374512,654.359375 
	C1481.374512,624.823853 1481.374512,595.613098 1481.374512,565.962646 
	C1488.776978,565.962646 1495.695557,565.962646 1502.730469,565.962646 
	C1502.730469,562.472046 1502.730469,559.435303 1502.730469,556.446838 
	C1484.682495,556.446838 1466.980713,556.446838 1449.057007,556.446838 
	C1449.057007,559.297974 1449.057007,561.783264 1449.210693,565.193848 
M1788.834351,44.182262 
	C1770.959839,49.316277 1760.850952,62.425808 1761.988647,80.103104 
	C1762.890259,94.115463 1770.176514,104.338577 1783.212769,109.602463 
	C1796.388062,114.922508 1808.949097,112.777794 1819.486084,103.220757 
	C1829.724487,93.934563 1833.064941,81.905212 1829.371582,68.637230 
	C1824.400024,50.778214 1809.613770,41.940166 1788.834351,44.182262 
M266.333221,605.499878 
	C266.333221,621.743164 266.333221,637.986511 266.333221,654.293213 
	C270.131622,654.293213 273.309540,654.293213 276.368286,654.293213 
	C276.368286,621.341064 276.368286,588.833252 276.368286,556.371460 
	C272.912231,556.371460 269.838654,556.371460 266.333344,556.371460 
	C266.333344,572.638062 266.333344,588.568970 266.333221,605.499878 
M1267.834351,632.500000 
	C1267.834351,639.757507 1267.834351,647.015076 1267.834351,654.366211 
	C1271.515869,654.366211 1274.578369,654.366211 1277.667236,654.366211 
	C1277.667236,621.524841 1277.667236,589.007019 1277.667236,556.392761 
	C1274.289917,556.392761 1271.232910,556.392761 1267.833862,556.392761 
	C1267.833862,581.639832 1267.833862,606.569885 1267.834351,632.500000 
M1353.765259,607.671753 
	C1354.798340,615.417908 1364.960205,620.130615 1372.131958,614.631104 
	C1376.655518,611.162231 1378.041626,605.346863 1375.665771,600.307068 
	C1373.374023,595.446472 1367.515625,592.697571 1362.266724,594.020020 
	C1356.707397,595.420654 1353.513306,600.193848 1353.765259,607.671753 
M1580.114868,609.152161 
	C1580.892090,610.423706 1581.517334,611.825073 1582.473145,612.944214 
	C1586.480103,617.636047 1593.412720,618.325439 1598.214233,614.613831 
	C1603.218384,610.745667 1604.339600,604.313660 1600.929565,599.038818 
	C1598.022583,594.542358 1592.316284,592.572571 1587.358643,594.354309 
	C1581.695190,596.389709 1578.955933,601.562134 1580.114868,609.152161 
M1164.474243,615.230591 
	C1170.996826,609.619690 1171.822510,602.291992 1166.516846,597.105042 
	C1161.549316,592.248718 1153.749878,592.674438 1149.266113,598.046631 
	C1146.041138,601.910645 1145.790771,607.922485 1148.684570,612.008484 
	C1152.028442,616.729919 1157.103394,617.952576 1164.474243,615.230591 
M585.190063,601.776733 
	C583.763733,607.424011 585.348999,612.007507 590.212708,615.250366 
	C594.087830,617.834045 599.711182,617.534485 603.345215,614.633667 
	C607.391846,611.403503 608.894592,607.148315 607.483032,602.173828 
	C606.134705,597.421936 602.794312,594.572754 597.886902,593.857422 
	C592.551575,593.079590 588.684387,595.426819 585.190063,601.776733 
M361.364349,597.908569 
	C355.258911,604.243713 359.415680,615.719604 368.808380,616.882996 
	C374.141541,617.543579 379.100159,614.555908 381.119232,609.489990 
	C383.048035,604.650513 381.526550,599.317566 377.306366,596.125488 
	C372.583740,592.553345 367.399750,592.958679 361.364349,597.908569 
M158.716415,594.748596 
	C153.901947,597.137878 151.377838,600.976624 151.831421,606.385925 
	C152.227066,611.104187 154.816284,614.433594 159.228088,616.171204 
	C163.940002,618.027039 169.200424,616.613464 172.350967,612.808411 
	C175.659653,608.812256 176.031479,603.687927 173.327484,599.349243 
	C170.345261,594.564148 166.078522,593.046692 158.716415,594.748596 
z"/>
<path fill="#EC1F26" opacity="1.000000" stroke="none" 
	d="
M583.278137,38.727974 
	C620.626099,45.108013 656.272156,55.105083 690.038940,71.945419 
	C733.086609,93.414330 774.583557,117.209579 812.326904,147.182846 
	C820.666443,153.805588 828.648804,160.878189 837.151550,168.043625 
	C844.183167,162.079849 851.250244,155.834671 858.577637,149.911591 
	C909.986267,108.355690 965.865295,74.550400 1028.448975,52.488544 
	C1064.672119,39.719215 1101.958618,32.440559 1140.404541,31.393694 
	C1140.989990,31.377754 1141.576172,31.391703 1142.405029,32.376713 
	C1138.154297,33.920418 1133.832031,35.293289 1129.665405,37.037956 
	C1113.254883,43.909519 1096.877930,50.861820 1080.532715,57.887207 
	C1078.418457,58.795933 1076.588623,60.350132 1074.582642,61.529842 
	C1070.037842,64.202591 1068.099365,67.863159 1068.038330,73.402069 
	C1067.762329,98.378212 1067.032837,123.349350 1066.448730,149.117172 
	C1073.118286,145.997284 1079.343628,143.085587 1085.568726,140.173203 
	C1142.708130,113.440376 1201.778198,92.055809 1262.874023,76.322556 
	C1309.521240,64.310089 1356.922485,58.116512 1405.100586,56.723793 
	C1513.584473,53.587769 1622.062378,54.743164 1730.546875,56.128864 
	C1731.669800,56.143208 1732.789917,56.389526 1734.019897,56.540920 
	C1734.127808,57.568886 1734.281616,58.376152 1734.286011,59.184219 
	C1734.309937,63.656307 1734.297485,68.128593 1734.297485,72.894066 
	C1730.699463,72.894066 1727.597656,73.045853 1724.514160,72.871658 
	C1663.065430,69.400032 1601.590210,69.460159 1540.110596,71.686287 
	C1504.809937,72.964485 1469.507568,74.341461 1434.236694,76.246231 
	C1406.794312,77.728233 1379.172119,78.549568 1352.053223,82.540459 
	C1328.963867,85.938324 1306.121460,92.303757 1283.790771,99.329834 
	C1208.335571,123.070877 1139.756592,160.685745 1074.523315,204.894821 
	C1068.528442,208.957596 1066.584229,213.100067 1066.672363,220.171738 
	C1067.613037,295.660614 1068.226440,371.153748 1068.810181,446.646637 
	C1068.864136,453.616730 1072.491577,458.187531 1077.529175,462.053375 
	C1085.246704,467.975922 1094.324219,470.712311 1103.649780,472.787018 
	C1105.586792,473.217926 1107.522949,473.652405 1109.713745,474.142090 
	C1109.713745,482.965240 1109.713745,491.591675 1109.713745,500.636627 
	C1059.954956,500.636627 1010.106079,500.636627 959.662842,500.636627 
	C960.291687,491.293060 960.901611,482.229584 961.517761,473.075226 
	C965.763245,472.883057 969.601501,472.992767 973.358276,472.491577 
	C992.280518,469.967133 1002.021912,458.158875 1001.734436,439.067230 
	C1001.019348,391.580841 1000.500671,344.091431 999.915161,296.603088 
	C999.791870,286.604523 999.729675,276.605225 999.614929,266.606506 
	C999.598450,265.171722 999.443176,263.738556 999.296204,261.423676 
	C965.627563,288.866943 934.043091,317.345612 903.950928,348.403656 
	C883.985291,308.877655 856.252563,275.340973 827.834473,241.095367 
	C801.233826,277.148621 775.144653,312.740265 756.743530,354.079742 
	C731.994446,325.023193 705.789001,297.829681 677.529663,271.248444 
	C677.393311,273.838928 677.220642,275.419159 677.240051,276.997009 
	C677.896729,330.478760 678.399475,383.963440 679.373352,437.439514 
	C679.598511,449.802368 685.614258,460.180603 694.809814,468.293915 
	C702.118591,474.742584 710.673218,474.147461 719.981995,470.295837 
	C720.713013,480.955963 721.409790,491.117401 722.105713,501.266113 
	C671.008545,501.266113 620.296265,501.266113 568.832825,501.266113 
	C568.832825,491.161163 568.832825,481.750275 568.832825,472.771545 
	C574.060425,473.533630 579.758911,475.017670 585.468872,475.063019 
	C597.978210,475.162323 606.282837,468.128174 610.417297,456.965759 
	C612.964172,450.089417 614.751221,442.455658 614.715637,435.172516 
	C614.364258,363.345612 613.581421,291.520691 612.774475,219.696823 
	C612.750305,217.546494 611.740723,214.633286 610.158020,213.386719 
	C560.248657,174.078156 507.164612,139.955154 448.430298,115.162811 
	C423.371094,104.585075 397.691467,95.662872 371.002075,90.510292 
	C356.355194,87.682602 341.223602,86.971809 326.264709,86.224495 
	C270.688110,83.448029 215.114166,80.042313 159.496826,78.850494 
	C118.896179,77.980469 78.229034,80.216011 37.591389,81.060188 
	C35.802059,81.097359 34.011288,81.064949 32.276321,81.064949 
	C32.164749,80.420372 32.005409,80.077606 32.069374,79.783386 
	C33.165138,74.743340 32.725971,67.935204 35.852699,65.181351 
	C38.877064,62.517643 45.578514,63.760105 50.665943,63.747833 
	C129.486923,63.557716 208.311752,62.961571 287.127289,63.561275 
	C316.228973,63.782707 345.388306,66.044846 374.376465,68.865425 
	C403.623108,71.711151 431.862549,79.952812 459.870575,88.672295 
	C511.390259,104.711449 560.494507,126.398270 607.852783,152.147842 
	C608.999939,152.771622 610.164307,153.363708 611.883362,154.265854 
	C611.981628,152.376709 612.128540,150.986816 612.114990,149.598495 
	C611.858215,123.268158 611.514160,96.938309 611.392273,70.607430 
	C611.376038,67.087715 610.306152,65.350952 606.995300,64.020050 
	C581.630005,53.823677 556.095215,44.245010 528.860291,40.199635 
	C528.265442,40.111282 527.690735,39.887146 526.621765,39.592888 
	C530.253723,35.615940 534.810730,34.788380 539.122070,35.058044 
	C553.716309,35.970894 568.277405,37.413609 583.278137,38.727974 
M677.684021,193.802841 
	C678.744873,194.808517 679.708862,195.947250 680.881042,196.799866 
	C697.835449,209.132446 714.873779,221.350357 731.765503,233.767868 
	C738.417236,238.657684 744.756531,243.972427 751.455322,249.265274 
	C767.099731,231.542191 782.389160,214.221313 797.985229,196.552979 
	C761.881042,160.933701 722.076660,131.031906 677.572205,105.376328 
	C677.572205,135.348190 677.572205,164.137695 677.684021,193.802841 
M940.040588,140.549133 
	C915.115051,159.524872 891.430420,179.870392 871.314270,201.892426 
	C884.637573,215.690414 897.539124,229.051712 909.754944,241.702789 
	C938.728821,223.364944 967.440063,205.256485 996.011292,186.929688 
	C997.487183,185.982925 998.500366,183.166351 998.490967,181.226318 
	C998.368958,156.069595 998.027771,130.913895 997.716064,105.758240 
	C997.701050,104.547096 997.446106,103.338936 997.117310,100.562088 
	C977.643799,114.188675 959.123840,127.148010 940.040588,140.549133 
z"/>
<path fill="#EC1F26" opacity="1.000000" stroke="none" 
	d="
M231.951996,457.968689 
	C235.961502,466.739502 240.695023,474.487762 248.564468,479.862823 
	C256.526428,485.301117 265.098511,485.636932 273.854156,482.539673 
	C275.549347,481.939972 277.053772,479.756348 277.899597,477.953125 
	C298.964264,433.045593 319.924957,388.089294 340.911774,343.145233 
	C358.516022,305.445068 376.178253,267.771729 393.617798,229.995590 
	C394.647278,227.765594 394.674347,224.475677 393.892914,222.097977 
	C384.644257,193.955292 375.151154,165.892960 365.733551,137.805710 
	C365.479553,137.048203 365.352509,136.248093 365.058685,135.017166 
	C367.009003,135.017166 368.628967,134.987045 370.247559,135.021805 
	C386.574341,135.372253 402.899933,135.805450 419.228424,136.025024 
	C422.171570,136.064621 423.608368,136.879364 424.608032,139.808792 
	C452.180298,220.607697 479.850525,301.373138 507.517975,382.139587 
	C520.516968,420.086029 533.544922,458.022552 546.553528,495.965729 
	C547.084778,497.515289 547.552002,499.086761 548.195984,501.109589 
	C546.335571,501.223816 544.901306,501.386932 543.466919,501.388580 
	C526.302185,501.407990 509.136078,501.290466 491.973846,501.497955 
	C488.436249,501.540710 487.156158,500.299133 486.128662,497.081909 
	C470.838806,449.207458 455.369049,401.390411 440.088593,353.512970 
	C439.010529,350.135071 437.363464,349.303436 434.041412,349.299408 
	C416.044312,349.277588 398.045776,349.100220 380.052063,348.754059 
	C376.768311,348.690887 375.491364,349.747131 374.588013,352.859680 
	C360.996918,399.689240 347.317688,446.493408 333.537689,493.267761 
	C330.620544,503.169769 332.965515,501.462555 322.737000,501.541077 
	C298.581696,501.726593 274.424561,501.692108 250.269760,501.916748 
	C209.095459,502.299683 177.608948,478.486053 167.696579,438.000763 
	C162.511093,416.821625 146.352051,403.820496 125.384895,400.261536 
	C120.960037,399.510468 116.448883,399.245850 111.970078,398.838562 
	C97.345215,397.508698 89.373016,404.677979 89.695023,419.328400 
	C90.112389,438.317596 90.993256,457.296539 91.417236,476.285645 
	C91.680244,488.065186 91.466042,499.855377 91.466042,512.012939 
	C73.061508,512.012939 53.832714,512.012939 34.012402,512.012939 
	C34.012402,510.201935 34.016811,508.422638 34.011772,506.643341 
	C33.669624,385.824402 33.351799,265.005371 32.879852,144.186951 
	C32.863297,139.948425 34.148247,137.513687 37.749901,135.470566 
	C59.785046,122.970665 83.587646,118.855240 108.544365,120.494141 
	C153.289307,123.432510 191.573364,142.876358 227.951752,167.326843 
	C246.298676,179.658096 258.468231,197.351547 270.470154,215.140121 
	C282.733856,233.316696 292.360443,252.827728 297.112885,274.461060 
	C305.883209,314.383911 292.153198,345.351837 259.526886,368.719666 
	C241.731171,381.465424 221.731430,389.608765 201.013763,396.177551 
	C199.459854,396.670258 197.918930,397.203766 195.809448,397.905426 
	C200.600159,403.050964 205.233063,407.706085 209.497620,412.677155 
	C217.322479,421.798309 224.777557,431.155884 227.561890,443.322235 
	C228.668503,448.157654 230.382370,452.854095 231.951996,457.968689 
M208.300873,357.829315 
	C214.467667,351.546234 221.269348,345.761963 226.675415,338.881226 
	C239.865341,322.093323 247.790421,302.663483 248.500168,281.426849 
	C248.932846,268.480225 246.832886,255.102585 243.714157,242.450073 
	C235.134048,207.641052 215.504959,181.214279 181.228897,167.881180 
	C161.242691,160.106705 140.398056,156.800858 119.043289,161.721405 
	C100.536049,165.985794 87.101807,184.005508 87.782036,202.192703 
	C89.631668,251.646011 90.540237,301.137421 91.459251,350.620453 
	C91.672188,362.086060 96.932365,370.247162 105.438972,376.833160 
	C113.112846,382.774475 122.231392,385.187073 131.713303,384.937988 
	C159.846909,384.198944 185.141785,374.994690 208.300873,357.829315 
M406.698730,261.386414 
	C405.860382,262.251312 404.584229,262.974091 404.250397,264.002747 
	C400.247833,276.335602 396.389526,288.715210 392.483765,301.079559 
	C390.668579,306.825836 388.832214,312.565430 387.035736,318.212860 
	C400.015289,318.212860 412.256287,318.212860 424.922607,318.212860 
	C418.770386,299.051788 412.831970,280.556580 406.698730,261.386414 
z"/>
<path fill="#EC1F26" opacity="1.000000" stroke="none" 
	d="
M1336.681396,141.267273 
	C1369.871338,163.527725 1390.356567,194.936035 1403.780029,231.341660 
	C1419.739380,274.624420 1423.523804,319.279449 1415.820068,364.662384 
	C1409.108032,404.202972 1394.244507,440.209747 1365.358643,469.101868 
	C1343.436646,491.028687 1317.281982,503.552856 1285.635254,501.969360 
	C1258.043457,500.588715 1235.121948,488.420593 1215.425049,469.781891 
	C1190.214233,445.925476 1174.123291,416.437439 1164.529053,383.449585 
	C1147.560059,325.105438 1148.751587,267.297119 1172.342651,210.805344 
	C1184.445312,181.823959 1202.116089,156.725418 1229.348999,139.908295 
	C1264.096069,118.450951 1299.240112,119.310860 1334.209961,139.831757 
	C1334.927368,140.252747 1335.651978,140.661011 1336.681396,141.267273 
M1371.532104,365.921265 
	C1374.445557,342.698486 1374.942627,319.432007 1372.889893,296.109344 
	C1369.946167,262.667725 1362.628784,230.346756 1347.881714,200.006927 
	C1338.991089,181.715897 1327.968384,164.959778 1311.244629,152.692154 
	C1290.310303,137.336075 1266.883423,137.994659 1246.953003,154.479874 
	C1233.515015,165.594955 1224.837769,180.109680 1217.927612,195.779510 
	C1206.992188,220.577560 1201.464966,246.730652 1199.542114,273.641510 
	C1195.802002,325.983795 1202.161865,376.709351 1224.969360,424.579956 
	C1233.285645,442.034882 1243.916504,457.886993 1259.394165,469.938019 
	C1282.737183,488.113129 1309.340454,486.550781 1330.055664,465.505432 
	C1335.272339,460.205597 1340.034058,454.269012 1344.055542,448.014679 
	C1359.958984,423.281769 1367.174438,395.524109 1371.532104,365.921265 
z"/>
<path fill="#EC1F26" opacity="1.000000" stroke="none" 
	d="
M1579.828369,157.016754 
	C1579.823120,145.558105 1579.823120,134.596405 1579.823120,123.306641 
	C1595.705322,123.306641 1611.935669,123.306641 1628.488037,123.306641 
	C1628.619019,124.610260 1628.836670,125.886116 1628.862793,127.165886 
	C1630.005005,183.139175 1631.131348,239.112808 1632.257324,295.086426 
	C1632.924194,328.237976 1633.917358,361.387817 1634.097534,394.542053 
	C1634.174194,408.650055 1640.740967,417.356323 1652.944824,422.846100 
	C1653.673584,423.173981 1654.410278,423.483978 1655.098145,423.782654 
	C1654.989746,424.306854 1655.018799,424.745575 1654.865845,424.822449 
	C1646.034668,429.265106 1639.023193,435.119019 1633.067993,443.584869 
	C1621.210327,460.441223 1605.457764,473.670471 1588.034668,484.852203 
	C1562.767944,501.067780 1535.337524,502.947693 1506.743408,497.721039 
	C1483.847168,493.535828 1462.890259,485.264893 1446.213257,468.319061 
	C1436.627563,458.578949 1429.849487,447.147095 1425.926758,433.775696 
	C1432.473267,433.775696 1438.580933,433.726257 1444.687500,433.786926 
	C1454.518188,433.884583 1464.351929,434.267456 1474.176636,434.089874 
	C1478.102539,434.018890 1479.639160,435.507294 1480.669678,439.054626 
	C1484.281494,451.486145 1490.576294,462.443878 1500.777222,470.563995 
	C1516.982178,483.463440 1535.179565,486.033020 1554.383301,478.622375 
	C1572.877075,471.485657 1582.725342,457.082092 1585.435303,437.851257 
	C1586.261353,431.989410 1585.362061,425.883362 1585.241333,419.889404 
	C1583.738159,345.257538 1582.238037,270.625610 1580.722290,195.994003 
	C1580.461670,183.166504 1580.131592,170.340424 1579.828369,157.016754 
z"/>
<path fill="#EC1E26" opacity="1.000000" stroke="none" 
	d="
M1693.989990,497.856506 
	C1692.977661,372.798523 1691.968140,248.229736 1690.955811,123.321091 
	C1706.966064,123.321091 1722.684570,123.321091 1738.736328,123.321091 
	C1738.736328,249.202682 1738.736328,375.025269 1738.736328,501.368134 
	C1729.977905,501.368134 1721.367676,501.371277 1712.757446,501.366943 
	C1707.593506,501.364319 1702.418701,501.526581 1697.274292,501.204926 
	C1696.125366,501.133118 1695.083740,499.344116 1693.989990,497.856506 
z"/>
<path fill="#2C2829" opacity="1.000000" stroke="none" 
	d="
M1085.018799,694.821167 
	C1083.027832,694.906860 1081.036865,695.066284 1079.045898,695.067688 
	C732.552673,695.308899 386.059418,695.538757 39.566166,695.768921 
	C37.753838,695.770142 35.941513,695.769104 33.720009,695.769104 
	C33.720009,693.411621 33.720009,691.346436 33.720009,688.294250 
	C601.967224,688.294250 1170.314697,688.294250 1739.858398,688.294250 
	C1738.867798,690.503967 1737.899536,692.663940 1736.354126,694.317139 
	C1733.515015,693.534607 1731.253174,693.017517 1728.991211,693.017212 
	C1521.003662,692.983643 1313.016235,692.989502 1105.028687,692.992920 
	C1099.695679,692.992981 1094.358032,692.873657 1089.032837,693.078491 
	C1087.674438,693.130798 1086.355713,694.212463 1085.018799,694.821167 
z"/>
<path fill="#242021" opacity="1.000000" stroke="none" 
	d="
M1737.016357,533.557251 
	C1735.692017,533.638977 1734.367676,533.792358 1733.043335,533.792480 
	C1414.325928,533.815674 1095.608521,533.828186 776.301147,533.372437 
	C771.146729,533.144348 766.582214,533.384827 762.017761,533.625244 
	C758.305237,533.697876 754.592712,533.770447 750.294617,533.371948 
	C741.058655,532.717957 732.408447,532.524597 723.757202,532.405884 
	C723.516357,532.402588 723.264526,533.198120 723.017883,533.621216 
	C722.561218,533.693726 722.104553,533.766296 721.178345,533.369812 
	C720.151550,532.610352 719.595703,532.069641 719.036865,532.066528 
	C708.586914,532.007874 698.136292,531.973694 687.687134,532.075195 
	C686.792419,532.083801 685.907349,533.082703 685.017822,533.621643 
	C680.640686,533.695740 676.263489,533.769775 671.299683,533.375183 
	C666.481262,533.144897 662.249573,533.383301 658.017822,533.621643 
	C657.253174,533.695129 656.488464,533.768616 655.217041,533.372437 
	C649.812805,533.142578 644.915344,533.382263 640.017822,533.622009 
	C639.253113,533.695374 638.488464,533.768738 637.230713,533.390503 
	C634.164368,533.166382 631.591125,533.393799 629.017883,533.621216 
	C627.612061,533.694824 626.206299,533.768433 624.254578,533.371582 
	C623.151367,532.610718 622.595337,532.070007 622.036499,532.066956 
	C611.253296,532.008606 600.469482,531.975037 589.687073,532.075073 
	C588.792603,532.083313 587.907349,533.083008 587.017822,533.622009 
	C583.667664,533.690308 580.317566,533.758606 576.401367,533.376709 
	C574.229553,533.158997 572.623718,533.391479 571.017883,533.623901 
	C567.305664,533.701355 563.593445,533.778748 559.316406,533.409058 
	C556.506958,533.186951 554.262329,533.411926 552.017639,533.636963 
	C547.308167,533.709290 542.598694,533.781616 537.302124,533.384766 
	C532.077637,531.796509 527.435120,530.580383 523.017639,533.636719 
	C521.286011,533.709351 519.554382,533.781982 517.267578,533.383545 
	C509.058197,532.728821 501.404236,532.533630 493.749084,532.415894 
	C493.511597,532.412231 493.261749,533.211182 493.017700,533.635864 
	C491.286072,533.709229 489.554474,533.782532 487.287231,533.408997 
	C484.506989,533.186523 482.262299,533.410950 480.017639,533.635376 
	C477.299316,533.708923 474.580994,533.782410 471.289551,533.387207 
	C466.483521,533.157898 462.250580,533.397217 458.017670,533.636536 
	C454.968506,533.708801 451.919342,533.781067 448.305603,533.401611 
	C445.166595,533.178284 442.592133,533.406738 440.017670,533.635254 
	C437.958344,533.708496 435.898987,533.781738 433.290283,533.402954 
	C430.166504,533.179749 427.592102,533.408569 425.017670,533.637390 
	C422.299347,533.710388 419.580994,533.783386 416.289734,533.387573 
	C411.483734,533.157654 407.250671,533.396545 403.017639,533.635498 
	C400.299347,533.708130 397.581055,533.780823 394.287659,533.382812 
	C385.724823,532.728638 377.737244,532.534119 369.748627,532.416016 
	C369.511047,532.412537 369.261597,533.211792 369.017700,533.636719 
	C366.958313,533.709839 364.898987,533.782898 362.276306,533.384949 
	C356.363556,532.626709 351.015594,532.292175 345.662415,532.125671 
	C345.130371,532.109131 344.566528,533.116638 344.017456,533.648865 
	C342.935272,533.720886 341.853088,533.792908 340.243469,533.393982 
	C338.995026,532.618225 338.274841,532.049438 337.552887,532.047241 
	C320.759521,531.995544 303.965790,531.975525 287.172882,532.074036 
	C286.118011,532.080200 285.069122,533.100830 284.017426,533.649475 
	C282.935242,533.721558 281.853058,533.793640 280.257507,533.413635 
	C277.168579,533.190247 274.593018,533.419006 272.017426,533.647766 
	C268.968567,533.720520 265.919708,533.793274 262.293549,533.394775 
	C261.162201,532.626770 260.609528,532.074158 260.053864,532.071106 
	C249.259903,532.011230 238.465195,531.977173 227.671982,532.077881 
	C226.782318,532.086182 225.902054,533.099792 225.017441,533.646362 
	C224.253265,533.717896 223.489105,533.789368 222.221344,533.392700 
	C217.078369,531.793945 212.433914,530.567749 208.017426,533.649536 
	C205.958374,533.721436 203.899338,533.793335 201.277954,533.394043 
	C193.391525,532.738342 186.067627,532.541809 178.742462,532.423950 
	C178.507416,532.420166 178.259415,533.221924 178.017456,533.648132 
	C174.637589,533.719849 171.257706,533.791504 167.296722,533.392456 
	C164.829773,532.615356 162.944321,532.043945 161.058075,532.041382 
	C118.644707,531.983337 76.231255,531.987732 33.817825,531.980408 
	C33.729221,530.921448 33.640617,529.862488 33.944920,528.304443 
	C34.563965,527.508240 34.790108,527.211121 35.016251,526.914001 
	C36.672077,526.822266 38.327900,526.650146 39.983730,526.650024 
	C604.518005,526.613037 1169.052246,526.587708 1733.586548,526.563721 
	C1734.419556,526.563660 1735.252441,526.585876 1736.535645,527.148438 
	C1736.995972,529.651855 1737.006226,531.604492 1737.016357,533.557251 
z"/>
<path fill="#2A2728" opacity="1.000000" stroke="none" 
	d="
M776.136108,594.585327 
	C779.033997,614.600769 781.868835,634.181030 784.773865,654.246094 
	C781.488037,654.246094 778.455444,654.246094 774.662781,654.246094 
	C771.620178,632.094971 768.533203,609.620544 765.446228,587.146179 
	C765.113342,587.041077 764.780457,586.935974 764.447510,586.830872 
	C763.666687,588.324463 762.852295,589.801636 762.110107,591.314209 
	C752.433655,611.032593 742.788452,630.766418 733.057373,650.457886 
	C732.292114,652.006409 730.946045,653.267822 729.869873,654.662720 
	C728.645874,653.252991 727.060974,652.023621 726.252869,650.406189 
	C716.433533,630.752808 706.729858,611.041565 696.991394,591.347717 
	C696.189697,589.726379 695.353333,588.122192 693.455994,586.497986 
	C690.407898,609.037476 687.359863,631.576965 684.275940,654.381714 
	C681.075012,654.381714 678.176208,654.381714 674.408875,654.381714 
	C679.020386,621.614319 683.616455,588.956726 688.212585,556.299072 
	C688.790283,556.094727 689.367981,555.890320 689.945618,555.685974 
	C703.019653,582.156250 716.093628,608.626465 729.693054,636.160522 
	C743.016785,608.908325 755.989319,582.374390 768.961914,555.840393 
	C769.541626,555.901611 770.121277,555.962891 770.700928,556.024109 
	C772.491699,568.732788 774.282410,581.441467 776.136108,594.585327 
z"/>
<path fill="#2A2728" opacity="1.000000" stroke="none" 
	d="
M1037.789307,656.263794 
	C1011.837524,651.562317 994.213135,629.391663 995.369751,603.361389 
	C996.553467,576.720825 1016.248901,556.060730 1042.509033,553.948608 
	C1061.654907,552.408691 1078.026611,557.759888 1090.250610,573.305542 
	C1090.538452,573.671509 1090.701172,574.135803 1091.008667,574.717834 
	C1088.503418,576.646301 1086.037231,578.544678 1083.580811,580.435486 
	C1064.887085,557.986206 1034.283813,560.060791 1018.115845,575.865967 
	C1002.721985,590.914429 1002.453735,618.344971 1016.774292,634.007202 
	C1031.043945,649.613770 1062.831665,654.794983 1083.518066,631.366821 
	C1085.921387,633.265320 1088.339111,635.175293 1091.111206,637.365173 
	C1077.011841,654.346252 1058.972046,659.075256 1037.789307,656.263794 
z"/>
<path fill="#292627" opacity="1.000000" stroke="none" 
	d="
M76.995758,556.070312 
	C82.307800,556.070190 87.121025,556.070190 92.270340,556.070190 
	C92.270340,559.422180 92.270340,562.490723 92.270340,566.044556 
	C79.428032,566.044556 66.689064,566.044556 53.564583,566.044556 
	C53.564583,576.221558 53.564583,585.931091 53.564583,596.134644 
	C66.246811,596.134644 78.982712,596.134644 92.163109,596.134644 
	C92.163109,599.655884 92.163109,602.701782 92.163109,606.386719 
	C79.420456,606.386719 66.537193,606.386719 53.168945,606.386719 
	C53.168945,622.744202 53.168945,638.482727 53.168945,654.454590 
	C49.733742,654.454590 46.793678,654.454590 43.442810,654.454590 
	C43.442810,621.921753 43.442810,589.391541 43.442810,556.070374 
	C54.339432,556.070374 65.418182,556.070374 76.995758,556.070312 
z"/>
<path fill="#2A2627" opacity="1.000000" stroke="none" 
	d="
M1709.166382,628.000366 
	C1709.166260,636.979248 1709.166260,645.458313 1709.166260,654.316406 
	C1705.861572,654.316406 1702.814819,654.316406 1699.061279,654.316406 
	C1699.061279,652.548828 1699.061401,650.790771 1699.061401,649.032715 
	C1699.061401,646.036255 1699.093994,643.039307 1699.055176,640.043335 
	C1698.911011,628.915100 1700.926147,617.161255 1697.965820,606.836487 
	C1695.053223,596.678650 1687.077393,587.974915 1681.336426,578.624939 
	C1676.913330,571.420959 1672.510742,564.204346 1668.052002,556.916626 
	C1676.846191,554.604370 1678.787964,555.366333 1683.122070,562.409729 
	C1689.904663,573.431885 1696.728882,584.428345 1703.966797,596.133545 
	C1705.694336,593.440735 1707.110596,591.325256 1708.434326,589.153442 
	C1713.627197,580.634766 1719.418335,572.403992 1723.768677,563.472717 
	C1727.326904,556.167847 1732.314819,554.855652 1739.786499,556.616943 
	C1734.535522,565.409912 1729.369873,574.071045 1724.191528,582.724548 
	C1722.740234,585.149780 1721.471191,587.723999 1719.743774,589.937317 
	C1711.078735,601.039001 1707.083984,613.399658 1709.166382,628.000366 
z"/>
<path fill="#2F2C2D" opacity="1.000000" stroke="none" 
	d="
M457.162659,644.944946 
	C457.162628,615.206970 457.162628,585.959229 457.162628,556.382568 
	C460.690033,556.382568 463.774078,556.382568 467.584656,556.382568 
	C467.584656,585.608276 467.584656,614.917297 467.584656,644.645386 
	C480.387482,644.645386 492.479218,644.645386 504.797882,644.645386 
	C504.797882,648.011047 504.797882,650.951965 504.797882,654.308594 
	C489.119995,654.308594 473.450012,654.308594 457.162659,654.308594 
	C457.162659,651.312622 457.162659,648.373901 457.162659,644.944946 
z"/>
<path fill="#262324" opacity="1.000000" stroke="none" 
	d="
M1449.133789,564.731201 
	C1449.057007,561.783264 1449.057007,559.297974 1449.057007,556.446838 
	C1466.980713,556.446838 1484.682495,556.446838 1502.730469,556.446838 
	C1502.730469,559.435303 1502.730469,562.472046 1502.730469,565.962646 
	C1495.695557,565.962646 1488.776978,565.962646 1481.374512,565.962646 
	C1481.374512,595.613098 1481.374512,624.823853 1481.374512,654.359375 
	C1477.659790,654.359375 1474.439575,654.359375 1470.728271,654.359375 
	C1470.728271,624.936340 1470.728271,595.729248 1470.728271,566.514771 
	C1463.232056,566.054626 1456.221436,565.624207 1449.133789,564.731201 
z"/>
<path fill="#191415" opacity="1.000000" stroke="none" 
	d="
M1085.479370,694.906982 
	C1086.355713,694.212463 1087.674438,693.130798 1089.032837,693.078491 
	C1094.358032,692.873657 1099.695679,692.992981 1105.028687,692.992920 
	C1313.016235,692.989502 1521.003662,692.983643 1728.991211,693.017212 
	C1731.253174,693.017517 1733.515015,693.534607 1736.032227,694.199280 
	C1735.127319,694.655640 1733.967163,694.781921 1732.806885,694.782349 
	C1517.184570,694.858398 1301.562256,694.925415 1085.479370,694.906982 
z"/>
<path fill="#2D2A2B" opacity="1.000000" stroke="none" 
	d="
M1789.247559,44.118034 
	C1809.613770,41.940166 1824.400024,50.778214 1829.371582,68.637230 
	C1833.064941,81.905212 1829.724487,93.934563 1819.486084,103.220757 
	C1808.949097,112.777794 1796.388062,114.922508 1783.212769,109.602463 
	C1770.176514,104.338577 1762.890259,94.115463 1761.988647,80.103104 
	C1760.850952,62.425808 1770.959839,49.316277 1789.247559,44.118034 
M1786.086060,104.667068 
	C1789.823730,105.338112 1793.583984,106.684738 1797.295288,106.561317 
	C1812.062744,106.070213 1823.982056,94.431007 1824.912476,80.121597 
	C1825.910767,64.767593 1816.088379,52.255707 1800.842773,49.461578 
	C1787.219971,46.964893 1772.936401,55.734840 1768.902466,69.072754 
	C1764.440796,83.824745 1771.162720,98.193451 1786.086060,104.667068 
z"/>
<path fill="#343132" opacity="1.000000" stroke="none" 
	d="
M266.333282,604.999878 
	C266.333344,588.568970 266.333344,572.638062 266.333344,556.371460 
	C269.838654,556.371460 272.912231,556.371460 276.368286,556.371460 
	C276.368286,588.833252 276.368286,621.341064 276.368286,654.293213 
	C273.309540,654.293213 270.131622,654.293213 266.333221,654.293213 
	C266.333221,637.986511 266.333221,621.743164 266.333282,604.999878 
z"/>
<path fill="#282425" opacity="1.000000" stroke="none" 
	d="
M1267.834106,632.000000 
	C1267.833862,606.569885 1267.833862,581.639832 1267.833862,556.392761 
	C1271.232910,556.392761 1274.289917,556.392761 1277.667236,556.392761 
	C1277.667236,589.007019 1277.667236,621.524841 1277.667236,654.366211 
	C1274.578369,654.366211 1271.515869,654.366211 1267.834351,654.366211 
	C1267.834351,647.015076 1267.834351,639.757507 1267.834106,632.000000 
z"/>
<path fill="#EC2329" opacity="1.000000" stroke="none" 
	d="
M1353.698730,607.297485 
	C1353.513306,600.193848 1356.707397,595.420654 1362.266724,594.020020 
	C1367.515625,592.697571 1373.374023,595.446472 1375.665771,600.307068 
	C1378.041626,605.346863 1376.655518,611.162231 1372.131958,614.631104 
	C1364.960205,620.130615 1354.798340,615.417908 1353.698730,607.297485 
z"/>
<path fill="#EC2328" opacity="1.000000" stroke="none" 
	d="
M1580.011597,608.787231 
	C1578.955933,601.562134 1581.695190,596.389709 1587.358643,594.354309 
	C1592.316284,592.572571 1598.022583,594.542358 1600.929565,599.038818 
	C1604.339600,604.313660 1603.218384,610.745667 1598.214233,614.613831 
	C1593.412720,618.325439 1586.480103,617.636047 1582.473145,612.944214 
	C1581.517334,611.825073 1580.892090,610.423706 1580.011597,608.787231 
z"/>
<path fill="#EC2328" opacity="1.000000" stroke="none" 
	d="
M1164.153809,615.444336 
	C1157.103394,617.952576 1152.028442,616.729919 1148.684570,612.008484 
	C1145.790771,607.922485 1146.041138,601.910645 1149.266113,598.046631 
	C1153.749878,592.674438 1161.549316,592.248718 1166.516846,597.105042 
	C1171.822510,602.291992 1170.996826,609.619690 1164.153809,615.444336 
z"/>
<path fill="#EC2329" opacity="1.000000" stroke="none" 
	d="
M585.342529,601.438599 
	C588.684387,595.426819 592.551575,593.079590 597.886902,593.857422 
	C602.794312,594.572754 606.134705,597.421936 607.483032,602.173828 
	C608.894592,607.148315 607.391846,611.403503 603.345215,614.633667 
	C599.711182,617.534485 594.087830,617.834045 590.212708,615.250366 
	C585.348999,612.007507 583.763733,607.424011 585.342529,601.438599 
z"/>
<path fill="#EC2328" opacity="1.000000" stroke="none" 
	d="
M361.613281,597.620789 
	C367.399750,592.958679 372.583740,592.553345 377.306366,596.125488 
	C381.526550,599.317566 383.048035,604.650513 381.119232,609.489990 
	C379.100159,614.555908 374.141541,617.543579 368.808380,616.882996 
	C359.415680,615.719604 355.258911,604.243713 361.613281,597.620789 
z"/>
<path fill="#EC2429" opacity="1.000000" stroke="none" 
	d="
M159.084045,594.581421 
	C166.078522,593.046692 170.345261,594.564148 173.327484,599.349243 
	C176.031479,603.687927 175.659653,608.812256 172.350967,612.808411 
	C169.200424,616.613464 163.940002,618.027039 159.228088,616.171204 
	C154.816284,614.433594 152.227066,611.104187 151.831421,606.385925 
	C151.377838,600.976624 153.901947,597.137878 159.084045,594.581421 
z"/>
<path fill="#161315" opacity="1.000000" stroke="none" 
	d="
M33.798920,532.442139 
	C76.231255,531.987732 118.644707,531.983337 161.058075,532.041382 
	C162.944321,532.043945 164.829773,532.615356 166.848206,533.284546 
	C148.535828,533.719727 130.090897,533.827759 111.645828,533.855652 
	C87.376816,533.892273 63.107670,533.885010 38.838753,533.825195 
	C37.151760,533.820984 35.466228,533.224854 33.798920,532.442139 
z"/>
<path fill="#161315" opacity="1.000000" stroke="none" 
	d="
M284.476837,533.741333 
	C285.069122,533.100830 286.118011,532.080200 287.172882,532.074036 
	C303.965790,531.975525 320.759521,531.995544 337.552887,532.047241 
	C338.274841,532.049438 338.995026,532.618225 339.848450,533.286072 
	C321.632629,533.710388 303.284454,533.771790 284.476837,533.741333 
z"/>
<path fill="#161315" opacity="1.000000" stroke="none" 
	d="
M587.476807,533.716064 
	C587.907349,533.083008 588.792603,532.083313 589.687073,532.075073 
	C600.469482,531.975037 611.253296,532.008606 622.036499,532.066956 
	C622.595337,532.070007 623.151367,532.610718 623.844360,533.261475 
	C611.965332,533.684570 599.950500,533.747314 587.476807,533.716064 
z"/>
<path fill="#161315" opacity="1.000000" stroke="none" 
	d="
M225.476807,533.738525 
	C225.902054,533.099792 226.782318,532.086182 227.671982,532.077881 
	C238.465195,531.977173 249.259903,532.011230 260.053864,532.071106 
	C260.609528,532.074158 261.162201,532.626770 261.848541,533.286621 
	C249.965942,533.710022 237.951065,533.770386 225.476807,533.738525 
z"/>
<path fill="#161315" opacity="1.000000" stroke="none" 
	d="
M685.476807,533.715515 
	C685.907349,533.082703 686.792419,532.083801 687.687134,532.075195 
	C698.136292,531.973694 708.586914,532.007874 719.036865,532.066528 
	C719.595703,532.069641 720.151550,532.610352 720.844482,533.260986 
	C709.298706,533.684021 697.617249,533.746704 685.476807,533.715515 
z"/>
<path fill="#161315" opacity="1.000000" stroke="none" 
	d="
M723.476807,533.715149 
	C723.264526,533.198120 723.516357,532.402588 723.757202,532.405884 
	C732.408447,532.524597 741.058655,532.717957 749.844604,533.261230 
	C741.298645,533.684143 732.617249,533.746643 723.476807,533.715149 
z"/>
<path fill="#161315" opacity="1.000000" stroke="none" 
	d="
M369.476807,533.729858 
	C369.261597,533.211792 369.511047,532.412537 369.748627,532.416016 
	C377.737244,532.534119 385.724823,532.728638 393.846497,533.273682 
	C385.965637,533.697876 377.950806,533.760498 369.476807,533.729858 
z"/>
<path fill="#161315" opacity="1.000000" stroke="none" 
	d="
M493.476929,533.728638 
	C493.261749,533.211182 493.511597,532.412231 493.749084,532.415894 
	C501.404236,532.533630 509.058197,532.728821 516.846436,533.274048 
	C509.299072,533.697571 501.617584,533.759460 493.476929,533.728638 
z"/>
<path fill="#161315" opacity="1.000000" stroke="none" 
	d="
M178.476807,533.740173 
	C178.259415,533.221924 178.507416,532.420166 178.742462,532.423950 
	C186.067627,532.541809 193.391525,532.738342 200.848236,533.285706 
	C193.632599,533.709778 186.284363,533.770996 178.476807,533.740173 
z"/>
<path fill="#161315" opacity="1.000000" stroke="none" 
	d="
M344.476135,533.740845 
	C344.566528,533.116638 345.130371,532.109131 345.662415,532.125671 
	C351.015594,532.292175 356.363556,532.626709 361.846741,533.275513 
	C356.298584,533.702393 350.616669,533.767639 344.476135,533.740845 
z"/>
<path fill="#161315" opacity="1.000000" stroke="none" 
	d="
M640.474243,533.716003 
	C644.915344,533.382263 649.812805,533.142578 654.845276,533.262207 
	C650.297058,533.684448 645.613892,533.747192 640.474243,533.716003 
z"/>
<path fill="#161315" opacity="1.000000" stroke="none" 
	d="
M208.472870,533.741150 
	C212.433914,530.567749 217.078369,531.793945 221.849289,533.285278 
	C217.629974,533.708374 213.279160,533.770569 208.472870,533.741150 
z"/>
<path fill="#161315" opacity="1.000000" stroke="none" 
	d="
M523.472778,533.729736 
	C527.435120,530.580383 532.077637,531.796509 536.847778,533.275269 
	C532.629700,533.697693 528.278809,533.760254 523.472778,533.729736 
z"/>
<path fill="#161315" opacity="1.000000" stroke="none" 
	d="
M762.472778,533.718994 
	C766.582214,533.384827 771.146729,533.144348 775.845642,533.262268 
	C771.629333,533.684692 767.278564,533.748718 762.472778,533.718994 
z"/>
<path fill="#161315" opacity="1.000000" stroke="none" 
	d="
M403.471375,533.728271 
	C407.250671,533.396545 411.483734,533.157654 415.848633,533.278198 
	C411.962036,533.698792 407.943604,533.759949 403.471375,533.728271 
z"/>
<path fill="#161315" opacity="1.000000" stroke="none" 
	d="
M658.471313,533.715637 
	C662.249573,533.383301 666.481262,533.144897 670.846558,533.264526 
	C666.961731,533.684875 662.943298,533.747253 658.471313,533.715637 
z"/>
<path fill="#161315" opacity="1.000000" stroke="none" 
	d="
M458.471344,533.729736 
	C462.250580,533.397217 466.483521,533.157898 470.848450,533.277893 
	C466.962006,533.699158 462.943512,533.761047 458.471344,533.729736 
z"/>
<path fill="#161315" opacity="1.000000" stroke="none" 
	d="
M272.452148,533.739502 
	C274.593018,533.419006 277.168579,533.190247 279.862488,533.305603 
	C277.616180,533.710205 275.251495,533.770752 272.452148,533.739502 
z"/>
<path fill="#161315" opacity="1.000000" stroke="none" 
	d="
M425.452209,533.729980 
	C427.592102,533.408569 430.166504,533.179749 432.860718,533.293579 
	C430.615906,533.698364 428.251343,533.760437 425.452209,533.729980 
z"/>
<path fill="#161315" opacity="1.000000" stroke="none" 
	d="
M440.452087,533.728516 
	C442.592133,533.406738 445.166595,533.178284 447.860779,533.292542 
	C445.615845,533.697510 443.251160,533.759705 440.452087,533.728516 
z"/>
<path fill="#161315" opacity="1.000000" stroke="none" 
	d="
M629.452148,533.715088 
	C631.591125,533.393799 634.164368,533.166382 636.858887,533.280212 
	C634.615601,533.683960 632.251038,533.746521 629.452148,533.715088 
z"/>
<path fill="#161315" opacity="1.000000" stroke="none" 
	d="
M480.445435,533.728088 
	C482.262299,533.410950 484.506989,533.186523 486.866089,533.299683 
	C484.944733,533.698425 482.908966,533.759583 480.445435,533.728088 
z"/>
<path fill="#161315" opacity="1.000000" stroke="none" 
	d="
M1737.396973,533.616638 
	C1737.006226,531.604492 1736.995972,529.651855 1736.986206,527.276367 
	C1739.444702,528.651367 1739.571411,529.744324 1737.396973,533.616638 
z"/>
<path fill="#161315" opacity="1.000000" stroke="none" 
	d="
M552.445374,533.729736 
	C554.262329,533.411926 556.506958,533.186951 558.866089,533.299561 
	C556.944702,533.699036 554.908936,533.760803 552.445374,533.729736 
z"/>
<path fill="#161315" opacity="1.000000" stroke="none" 
	d="
M571.379028,533.717041 
	C572.623718,533.391479 574.229553,533.158997 576.008240,533.273315 
	C574.700806,533.683411 573.220520,533.746765 571.379028,533.717041 
z"/>
<path fill="#161315" opacity="1.000000" stroke="none" 
	d="
M34.661976,526.888428 
	C34.790108,527.211121 34.563965,527.508240 34.079075,527.924500 
	C33.982784,527.650085 34.145245,527.256470 34.661976,526.888428 
z"/>
<path fill="#FFFEFE" opacity="1.000000" stroke="none" 
	d="
M677.628113,193.365021 
	C677.572205,164.137695 677.572205,135.348190 677.572205,105.376328 
	C722.076660,131.031906 761.881042,160.933701 797.985229,196.552979 
	C782.389160,214.221313 767.099731,231.542191 751.455322,249.265274 
	C744.756531,243.972427 738.417236,238.657684 731.765503,233.767868 
	C714.873779,221.350357 697.835449,209.132446 680.881042,196.799866 
	C679.708862,195.947250 678.744873,194.808517 677.628113,193.365021 
z"/>
<path fill="#FFFDFD" opacity="1.000000" stroke="none" 
	d="
M940.322266,140.328247 
	C959.123840,127.148010 977.643799,114.188675 997.117310,100.562088 
	C997.446106,103.338936 997.701050,104.547096 997.716064,105.758240 
	C998.027771,130.913895 998.368958,156.069595 998.490967,181.226318 
	C998.500366,183.166351 997.487183,185.982925 996.011292,186.929688 
	C967.440063,205.256485 938.728821,223.364944 909.754944,241.702789 
	C897.539124,229.051712 884.637573,215.690414 871.314270,201.892426 
	C891.430420,179.870392 915.115051,159.524872 940.322266,140.328247 
z"/>
<path fill="#FFFEFE" opacity="1.000000" stroke="none" 
	d="
M208.006561,358.029602 
	C185.141785,374.994690 159.846909,384.198944 131.713303,384.937988 
	C122.231392,385.187073 113.112846,382.774475 105.438972,376.833160 
	C96.932365,370.247162 91.672188,362.086060 91.459251,350.620453 
	C90.540237,301.137421 89.631668,251.646011 87.782036,202.192703 
	C87.101807,184.005508 100.536049,165.985794 119.043289,161.721405 
	C140.398056,156.800858 161.242691,160.106705 181.228897,167.881180 
	C215.504959,181.214279 235.134048,207.641052 243.714157,242.450073 
	C246.832886,255.102585 248.932846,268.480225 248.500168,281.426849 
	C247.790421,302.663483 239.865341,322.093323 226.675415,338.881226 
	C221.269348,345.761963 214.467667,351.546234 208.006561,358.029602 
z"/>
<path fill="#FEFAF9" opacity="1.000000" stroke="none" 
	d="
M406.796143,261.723907 
	C412.831970,280.556580 418.770386,299.051788 424.922607,318.212860 
	C412.256287,318.212860 400.015289,318.212860 387.035736,318.212860 
	C388.832214,312.565430 390.668579,306.825836 392.483765,301.079559 
	C396.389526,288.715210 400.247833,276.335602 404.250397,264.002747 
	C404.584229,262.974091 405.860382,262.251312 406.796143,261.723907 
z"/>
<path fill="#FFFEFE" opacity="1.000000" stroke="none" 
	d="
M1371.448242,366.358948 
	C1367.174438,395.524109 1359.958984,423.281769 1344.055542,448.014679 
	C1340.034058,454.269012 1335.272339,460.205597 1330.055664,465.505432 
	C1309.340454,486.550781 1282.737183,488.113129 1259.394165,469.938019 
	C1243.916504,457.886993 1233.285645,442.034882 1224.969360,424.579956 
	C1202.161865,376.709351 1195.802002,325.983795 1199.542114,273.641510 
	C1201.464966,246.730652 1206.992188,220.577560 1217.927612,195.779510 
	C1224.837769,180.109680 1233.515015,165.594955 1246.953003,154.479874 
	C1266.883423,137.994659 1290.310303,137.336075 1311.244629,152.692154 
	C1327.968384,164.959778 1338.991089,181.715897 1347.881714,200.006927 
	C1362.628784,230.346756 1369.946167,262.667725 1372.889893,296.109344 
	C1374.942627,319.432007 1374.445557,342.698486 1371.448242,366.358948 
z"/>
<path fill="#F8F8F8" opacity="1.000000" stroke="none" 
	d="
M1785.737671,104.491066 
	C1771.162720,98.193451 1764.440796,83.824745 1768.902466,69.072754 
	C1772.936401,55.734840 1787.219971,46.964893 1800.842773,49.461578 
	C1816.088379,52.255707 1825.910767,64.767593 1824.912476,80.121597 
	C1823.982056,94.431007 1812.062744,106.070213 1797.295288,106.561317 
	C1793.583984,106.684738 1789.823730,105.338112 1785.737671,104.491066 
M1791.904175,81.220772 
	C1798.019409,82.221588 1799.773682,87.634644 1802.048462,92.025925 
	C1804.260620,96.296082 1806.940430,97.868973 1812.272705,96.365555 
	C1808.362305,90.780891 1804.602417,85.411392 1800.898315,80.121445 
	C1801.614014,79.862061 1802.947754,79.565079 1804.093506,78.929184 
	C1807.907593,76.812241 1810.111206,73.527260 1809.709961,69.131241 
	C1809.311035,64.760612 1806.850342,61.242161 1802.424316,60.724384 
	C1795.442139,59.907585 1788.361328,59.933319 1781.355469,59.603966 
	C1781.355469,72.588905 1781.355469,84.524918 1781.355469,96.581131 
	C1783.336792,96.581131 1785.044556,96.581131 1787.074829,96.581131 
	C1787.074829,92.436043 1787.283936,88.611870 1787.011353,84.822334 
	C1786.774902,81.532661 1788.145386,80.633430 1791.904175,81.220772 
z"/>
<path fill="#2D2B2B" opacity="1.000000" stroke="none" 
	d="
M1791.489380,81.188568 
	C1788.145386,80.633430 1786.774902,81.532661 1787.011353,84.822334 
	C1787.283936,88.611870 1787.074829,92.436043 1787.074829,96.581131 
	C1785.044556,96.581131 1783.336792,96.581131 1781.355469,96.581131 
	C1781.355469,84.524918 1781.355469,72.588905 1781.355469,59.603966 
	C1788.361328,59.933319 1795.442139,59.907585 1802.424316,60.724384 
	C1806.850342,61.242161 1809.311035,64.760612 1809.709961,69.131241 
	C1810.111206,73.527260 1807.907593,76.812241 1804.093506,78.929184 
	C1802.947754,79.565079 1801.614014,79.862061 1800.898315,80.121445 
	C1804.602417,85.411392 1808.362305,90.780891 1812.272705,96.365555 
	C1806.940430,97.868973 1804.260620,96.296082 1802.048462,92.025925 
	C1799.773682,87.634644 1798.019409,82.221588 1791.489380,81.188568 
M1798.806763,65.182968 
	C1795.036011,65.182968 1791.265381,65.182968 1787.371338,65.182968 
	C1787.371338,68.851501 1787.371338,72.241699 1787.371338,75.882950 
	C1790.807739,75.882950 1794.064087,76.409271 1797.032471,75.711349 
	C1799.284546,75.181854 1802.333008,73.433426 1802.870483,71.596481 
	C1803.345947,69.971100 1800.844604,67.474815 1798.806763,65.182968 
z"/>
<path fill="#F4F4F4" opacity="1.000000" stroke="none" 
	d="
M1799.232178,65.273010 
	C1800.844604,67.474815 1803.345947,69.971100 1802.870483,71.596481 
	C1802.333008,73.433426 1799.284546,75.181854 1797.032471,75.711349 
	C1794.064087,76.409271 1790.807739,75.882950 1787.371338,75.882950 
	C1787.371338,72.241699 1787.371338,68.851501 1787.371338,65.182968 
	C1791.265381,65.182968 1795.036011,65.182968 1799.232178,65.273010 
z"/>
</svg>