<?xml version="1.0" encoding="UTF-8"?>
<svg id="Layer_1" xmlns="http://www.w3.org/2000/svg" viewBox="0 0 18.87 21.69">
  <path d="M8.9,21.69c-.31,0-.66,0-1.05-.03-.4-.02-.81-.05-1.22-.09-.45-.05-.9-.11-1.35-.2-.55-.11-1.07-.25-1.55-.42-2.3-.84-3.73-2.84-3.73-5.21V5.5c0-1.31.47-2.53,1.33-3.43.62-.65,1.41-1.13,2.34-1.42.73-.24,1.56-.41,2.53-.52.85-.09,1.73-.14,2.62-.14,2.58,0,4.63.5,6.27,1.52,2.16,1.35,3.34,3.55,3.34,6.2,0,.84-.14,1.65-.42,2.4.57,1.04.87,2.22.87,3.47,0,2.74-1.19,5.02-3.34,6.44-1.71,1.12-3.88,1.67-6.63,1.67Z" style="fill: #fff;"/>
  <path d="M14.42,7.72c0,.65-.18,1.2-.53,1.67-.35.47-.86.83-1.52,1.09.83.27,1.45.67,1.87,1.2.42.53.62,1.17.62,1.91,0,1.39-.51,2.42-1.54,3.09s-2.5,1.01-4.44,1.01c-.26,0-.55,0-.87-.02s-.65-.04-.99-.08c-.34-.04-.67-.09-1.01-.15-.34-.06-.64-.15-.91-.25-.75-.27-1.12-.76-1.12-1.46V5.5c0-.29.08-.51.23-.67s.37-.28.66-.37c.47-.16,1.06-.28,1.76-.35.7-.08,1.43-.12,2.17-.12,1.79,0,3.17.3,4.15.91.97.61,1.46,1.54,1.46,2.8ZM7.27,9.52h2c.56,0,1-.13,1.31-.39.31-.26.47-.64.47-1.14,0-.46-.18-.81-.55-1.06-.37-.25-.91-.38-1.64-.38-.27,0-.56.01-.86.03s-.54.05-.73.08v2.86ZM11.44,13.43c0-1.02-.65-1.53-1.96-1.53h-2.21v3.01c.23.06.52.1.86.13s.67.04.99.04c.69,0,1.25-.13,1.68-.4s.64-.68.64-1.26Z" style="fill: #8a2be2;"/>
</svg>